<svg width="41" height="30" viewBox="0 0 41 30" fill="none" xmlns="http://www.w3.org/2000/svg">
<g clip-path="url(#clip0)">
<path d="M26.1293 12.4161C26.3929 10.9982 25.9052 9.48765 25.0087 8.36132C24.1122 7.22174 22.8598 6.42669 21.5151 5.88341C19.3267 4.9956 16.8614 4.75708 14.5939 5.37987C12.3264 6.00266 10.283 7.53977 9.20193 9.64666C8.41094 11.1838 8.16045 12.9594 8.25274 14.682C8.3582 16.6431 8.93827 18.6308 10.2434 20.0884C11.1662 21.1087 12.3923 21.811 13.6579 22.3278C16.3473 23.4408 19.4058 23.8119 22.2006 23.0168C24.9955 22.2217 27.5003 20.1811 28.5286 17.4382C29.5569 14.6952 28.9241 11.3295 26.7489 9.38164" fill="#F29D42"/>
<g opacity="0.6">
<path opacity="0.6" d="M26.1292 12.4161C26.3929 10.9982 25.9051 9.48762 25.0087 8.36129C24.4154 7.59274 23.6376 6.9832 22.807 6.50617C22.1215 6.10864 20.9746 5.4991 21.1328 6.85069C21.2778 8.05652 21.8842 9.1696 21.9369 10.3887C21.9633 11.0115 21.8315 11.621 21.6997 12.2306C21.3701 13.6882 21.0009 15.159 20.3681 16.5238C19.7353 17.8887 18.8389 19.1475 17.6128 20.0088C17.3096 20.2208 16.98 20.4196 16.7164 20.6846C16.3868 21.0291 16.1759 21.4929 16.1363 21.97C16.1231 22.1025 16.1363 22.2482 16.2022 22.3675C16.3077 22.553 16.5186 22.6325 16.7296 22.6855C17.8897 23.03 19.0762 23.2818 20.2627 23.4541C20.8955 23.5468 21.6206 23.2155 22.227 23.0433C25.0218 22.2482 27.5267 20.2076 28.555 17.4647C29.5833 14.7217 28.9505 11.356 26.7752 9.40811" fill="#C46D3D"/>
</g>
<path opacity="0.3" d="M28.3968 23.6396C24.2045 23.083 19.9067 23.348 15.8067 24.4346C14.7916 24.6996 13.6447 25.1369 13.2624 26.1307C12.9328 26.992 13.3151 27.9991 14.0006 28.6219C14.6862 29.2314 15.5958 29.523 16.4923 29.7085C18.8784 30.1855 21.3305 30.0132 23.7563 29.8277C26.327 29.629 28.9636 29.417 31.2971 28.2906C32.1276 27.8931 33.0241 27.1113 32.7736 26.2235C32.6681 25.826 32.3517 25.5344 32.0222 25.2959C30.9939 24.5671 29.7019 24.2094 28.4495 24.3419" fill="#ABAD99"/>
<path d="M13.6446 14.9338C13.671 15.477 14.2774 15.8878 14.8048 15.7553C15.3321 15.6228 15.6485 14.9868 15.5035 14.4567C15.3585 13.9267 14.8048 13.5689 14.2643 13.6087C13.9479 13.6352 13.6183 13.7942 13.4733 14.0724C13.3151 14.3507 13.381 14.7615 13.6446 14.9338Z" fill="#EB315E"/>
<path d="M13.3942 14.9338C13.4733 15.6493 14.1588 16.2058 14.8839 16.0071C15.609 15.8083 15.9913 14.9338 15.7144 14.2447C15.4244 13.5292 14.5279 13.1581 13.816 13.4497C13.1042 13.7412 12.88 14.6555 13.5392 15.1458C13.8029 15.3445 14.0665 14.894 13.8029 14.6952C13.3019 14.3242 14.027 13.8604 14.3829 13.8737C14.7916 13.8869 15.2003 14.1917 15.2794 14.6025C15.3453 14.947 15.1476 15.3445 14.818 15.477C14.4357 15.6228 13.9611 15.3578 13.9215 14.947C13.8688 14.6025 13.3546 14.6025 13.3942 14.9338Z" fill="#EB315E"/>
<path d="M21.6864 13.4761C21.7128 14.0194 22.3192 14.4302 22.8466 14.2977C23.3739 14.1519 23.6903 13.5291 23.5453 12.9991C23.4003 12.4691 22.8466 12.1113 22.3061 12.1511C21.9897 12.1776 21.6601 12.3366 21.5151 12.6148C21.3569 12.8931 21.4228 13.3039 21.6864 13.4761Z" fill="#EB315E"/>
<path d="M21.436 13.4761C21.5151 14.1917 22.2006 14.7482 22.9257 14.5495C23.6508 14.3507 24.0331 13.4761 23.7563 12.7871C23.4662 12.0715 22.5698 11.7005 21.8579 11.992C21.146 12.2836 20.9218 13.1979 21.581 13.6882C21.8447 13.8869 22.1083 13.4364 21.8447 13.2376C21.3437 12.8666 22.0688 12.4028 22.4247 12.4161C22.8334 12.4293 23.2421 12.7341 23.3212 13.1449C23.3871 13.4894 23.1894 13.8869 22.8598 14.0194C22.4775 14.1652 22.0029 13.9002 21.9633 13.4894C21.9106 13.1449 21.3964 13.1449 21.436 13.4761Z" fill="#EB315E"/>
<path d="M17.6656 22.9638C17.1514 23.5601 16.6505 24.1563 16.1363 24.7526C15.8067 25.1369 15.3717 25.5344 15.2926 26.0512C15.2003 26.7005 15.9781 27.5353 16.6373 27.2968C17.1119 27.1245 16.9141 26.356 16.4264 26.5283C16.3209 26.5018 16.2418 26.4488 16.1759 26.3692C16.0177 26.25 16.0177 26.1042 16.1759 25.9187C16.3473 25.6272 16.6373 25.3622 16.8482 25.1104C17.2965 24.5804 17.7579 24.0503 18.2061 23.5203C18.5489 23.136 17.9952 22.5662 17.6656 22.9638Z" fill="black"/>
<path d="M21.3042 23.136C21.0537 24.2359 20.8823 25.3357 20.6318 26.4355C20.6055 26.568 20.6186 26.727 20.7373 26.8198C21.3174 27.2968 21.6733 27.5221 22.4511 27.2703C22.9389 27.1113 22.728 26.3427 22.2402 26.5018C21.7524 26.6608 21.6469 26.5415 21.291 26.25C21.3305 26.3825 21.3569 26.5018 21.3965 26.6343C21.6469 25.5344 21.8183 24.4346 22.0688 23.3348C22.1875 22.8578 21.4228 22.6458 21.3042 23.136Z" fill="black"/>
<path d="M11.1794 19.0945C10.6125 19.2668 9.79517 19.5186 9.49195 18.8295C9.25465 18.2597 9.41285 17.4912 9.65015 16.9479C9.88745 16.4444 10.2434 15.9938 10.718 15.6758C11.1399 15.3975 11.4167 15.212 11.364 14.6555C11.3112 14.1519 10.5202 14.1519 10.573 14.6555C10.5993 14.9205 9.97973 15.2385 9.79517 15.3975C9.54469 15.636 9.32057 15.9143 9.14919 16.2058C8.78006 16.8286 8.56912 17.5707 8.60867 18.2862C8.63504 18.9355 8.83279 19.6113 9.46559 19.9161C10.072 20.2076 10.7839 20.0486 11.4035 19.8498C11.8649 19.7173 11.6672 18.9488 11.1794 19.0945Z" fill="black"/>
<path d="M18.127 6.59892C18.4698 5.27383 18.0875 3.35245 17.046 2.42489C16.6637 2.09362 16.11 2.65015 16.4923 2.98143C17.3229 3.72348 17.6524 5.31358 17.3756 6.3869C17.2306 6.89044 17.9952 7.10245 18.127 6.59892Z" fill="#337733"/>
<path d="M16.9932 2.58392C16.5054 2.2394 16.0045 1.88163 15.4376 1.72262C14.8575 1.55035 14.1984 1.60336 13.737 2.00088C13.5919 2.12014 13.4865 2.27915 13.3415 2.39841C13.0251 2.66343 12.5768 2.75618 12.1813 2.62368C13.1964 2.75618 13.9611 3.76325 14.9894 3.76325C15.5826 3.76325 16.1363 3.40548 16.5318 2.9417" fill="#4AA04C"/>
<path d="M17.191 2.25264C16.4527 1.73586 15.6617 1.21907 14.7389 1.24558C14.3697 1.25883 14.0138 1.35158 13.6974 1.55035C13.2096 1.85512 12.9855 2.41165 12.2868 2.25264C12.2209 2.50441 12.1418 2.76943 12.0758 3.02119C12.9855 3.1802 13.6315 3.92225 14.5279 4.12102C15.4112 4.31978 16.2154 3.8825 16.8086 3.24646C17.1514 2.87543 16.5977 2.30565 16.2549 2.68992C15.5826 3.40547 14.8707 3.53798 14.027 3.06095C13.4601 2.74293 12.9459 2.3719 12.3 2.26589C11.8122 2.17314 11.5881 2.91519 12.089 3.03445C12.9591 3.23321 13.3678 2.84893 14.0006 2.3454C14.9102 1.6166 16.0308 2.41165 16.8086 2.95494C17.2173 3.23321 17.6128 2.54416 17.191 2.25264Z" fill="#4AA04C"/>
<path d="M11.2453 14.6157C11.3771 14.3639 11.4694 14.0989 11.509 13.8207C11.5485 13.6086 11.4562 13.3966 11.2321 13.3304C11.0475 13.2774 10.7839 13.3966 10.7443 13.6086C10.7048 13.8207 10.652 14.0194 10.5598 14.2049C10.4675 14.3904 10.507 14.6422 10.7048 14.7482C10.8893 14.8542 11.153 14.8012 11.2453 14.6157Z" fill="black"/>
<path d="M11.1531 14.7482C11.364 14.6687 11.5617 14.5892 11.7727 14.5097C11.9704 14.4302 12.1154 14.2447 12.0495 14.0194C11.9836 13.8339 11.7727 13.6616 11.5617 13.7411C11.3508 13.8207 11.1531 13.9002 10.9421 13.9797C10.7444 14.0592 10.5994 14.2447 10.6653 14.4699C10.7312 14.6555 10.9553 14.8277 11.1531 14.7482Z" fill="black"/>
<path d="M11.0739 15.0397C11.298 15.0265 11.5353 15.0265 11.7594 15.0132C11.9704 15 12.1549 14.841 12.1549 14.6157C12.1549 14.4037 11.9704 14.2049 11.7594 14.2182C11.5353 14.2314 11.298 14.2314 11.0739 14.2447C10.863 14.2579 10.6784 14.4169 10.6784 14.6422C10.6784 14.8542 10.8498 15.0397 11.0739 15.0397Z" fill="black"/>
<path d="M10.0852 14.1519C10.2697 14.4037 10.4543 14.6555 10.6521 14.9072C10.7839 15.0795 10.9948 15.1722 11.1926 15.053C11.364 14.9602 11.4694 14.682 11.3376 14.5097C11.153 14.2579 10.9685 14.0062 10.7707 13.7544C10.6389 13.5821 10.4279 13.4894 10.2302 13.6086C10.0588 13.7146 9.95335 13.9797 10.0852 14.1519Z" fill="black"/>
<path d="M20.5132 12.4956C20.5923 12.0318 21.0669 11.7005 21.4888 12.0451C21.8843 12.3631 22.4512 11.8065 22.0425 11.4885C21.2119 10.826 19.92 11.1705 19.7354 12.2968C19.6695 12.7871 20.4341 12.9991 20.5132 12.4956Z" fill="black"/>
<path d="M16.8087 14.8675C17.2306 15.7155 17.9688 16.4178 18.9839 16.3648C20.1573 16.2986 20.9482 15.3843 21.146 14.2712C21.2383 13.7677 20.4737 13.5557 20.3814 14.0592C20.2364 14.8675 19.7222 15.6228 18.7994 15.5698C18.127 15.53 17.7579 15.0132 17.4942 14.47C17.2701 14.0062 16.5846 14.417 16.8087 14.8675Z" fill="black"/>
<path d="M0.18457 6.69171C0.883283 7.11574 1.56881 7.53976 2.26753 7.96379C2.70258 8.22881 3.09807 7.53976 2.66303 7.27475C1.9775 6.86397 1.27878 6.42669 0.593251 6.00266C0.14502 5.73764 -0.250479 6.42669 0.18457 6.69171Z" fill="black"/>
<path d="M0.909659 15.742C1.70066 15.4903 2.49165 15.2253 3.29583 14.9735C3.78361 14.8145 3.57268 14.0459 3.0849 14.2049C2.2939 14.4567 1.50291 14.7217 0.698727 14.9735C0.210945 15.1325 0.421878 15.9011 0.909659 15.742Z" fill="black"/>
<path d="M15.2794 13.5291C15.5958 13.1714 16.2022 12.5751 16.5846 13.1979C16.8482 13.6352 17.5338 13.2376 17.2701 12.8003C17.0064 12.3763 16.545 12.0981 16.0309 12.1378C15.4772 12.1776 15.0685 12.5751 14.7125 12.9726C14.383 13.3436 14.9367 13.9002 15.2794 13.5291Z" fill="black"/>
<path d="M31.2444 23.5733C33.301 23.8781 34.8435 22.2615 35.4763 20.6714C35.964 19.439 35.8586 18.0212 35.4103 16.7756C34.9489 15.53 34.1579 14.4302 33.301 13.4231C32.6682 12.6944 31.9959 11.9921 31.5213 11.144C30.9676 10.1502 30.7566 8.99735 30.3348 7.93728C29.9129 6.87721 28.0277 3.08746 24.9824 4.05478C24.0464 4.3463 23.2158 5.04859 22.8994 5.9894C22.5039 7.15548 22.8467 8.42757 22.9653 9.6599C23.3213 13.2244 21.7261 16.7756 22.0689 20.3401C22.1348 21.0954 22.3062 21.8507 22.6489 22.5265C23.4399 24.0504 25.1274 25.1369 26.8412 25.1369C27.6454 25.1369 28.7396 25.1634 29.5042 24.9117C30.3348 24.6466 31.3499 23.5998 31.4949 22.7385C31.6399 21.8772 31.3894 20.9496 30.8094 20.3004" fill="#8EBF41"/>
<g opacity="0.5">
<path opacity="0.5" d="M24.8505 18.1272C25.3119 16.6033 25.2856 13.3834 24.8505 11.1705C24.6001 9.88515 24.3891 7.85776 24.6264 6.57243C24.7187 6.06889 25.3647 3.81624 24.2309 4.29327C23.6377 4.54504 23.1103 5.40635 22.9126 5.98939C22.5171 7.15547 22.8599 8.42755 22.9785 9.65988C23.3345 13.2244 21.7393 16.7756 22.082 20.3401C22.148 21.0954 22.3193 21.8507 22.6621 22.5265C23.4531 24.0503 25.1406 25.1369 26.8544 25.1369C27.6586 25.1237 23.1367 23.7588 24.8505 18.1272Z" fill="#2A662A"/>
</g>
<g opacity="0.8">
<g opacity="0.8">
<path opacity="0.8" d="M29.0955 25.2827C30.0447 24.9382 30.9412 24.1166 31.284 23.1493C31.6663 22.0627 31.2708 20.8702 30.5853 20.0088C30.2689 19.6113 29.702 20.1811 30.0316 20.5654C31.1521 21.9567 30.5589 23.9046 28.8978 24.5141C28.41 24.6997 28.6209 25.4682 29.0955 25.2827Z" fill="#2A662A"/>
</g>
</g>
<path d="M17.1383 18.4585C17.1251 18.2465 17.1383 18.1007 17.191 17.9019C17.2438 17.7032 17.1251 17.4646 16.9142 17.4116C16.7032 17.3586 16.4923 17.4779 16.4264 17.6899C16.3605 17.9417 16.3341 18.2067 16.3473 18.4585C16.3605 18.6705 16.5187 18.8692 16.7428 18.856C16.9405 18.8427 17.1647 18.6705 17.1383 18.4585Z" fill="black"/>
<path d="M16.8087 18.1272C16.7956 18.1272 16.7296 18.061 16.756 18.0875C16.7824 18.114 16.7296 18.061 16.7165 18.061C16.6637 18.0212 16.6242 17.9682 16.5846 17.9284C16.5846 17.9284 16.5319 17.8622 16.5583 17.8887C16.5846 17.9152 16.5319 17.8357 16.5187 17.8357C16.4792 17.7827 16.4528 17.7297 16.4264 17.6634C16.3341 17.4779 16.0573 17.4117 15.8859 17.5177C15.7013 17.6369 15.6486 17.8622 15.7409 18.061C15.8991 18.3657 16.1364 18.6175 16.4132 18.803C16.5846 18.9223 16.8615 18.8428 16.9538 18.6572C17.046 18.4585 16.9801 18.2465 16.8087 18.1272Z" fill="black"/>
<path d="M16.255 18.2332C16.3341 18.167 16.1627 18.273 16.255 18.2332C16.2286 18.2465 16.1232 18.2597 16.2155 18.2597C16.1759 18.2597 16.1495 18.2597 16.11 18.2597C16.2023 18.273 16.0704 18.2332 16.0441 18.2332C15.8463 18.1537 15.5958 18.326 15.5563 18.5115C15.5036 18.75 15.6222 18.909 15.8331 19.0018C16.1759 19.1475 16.545 19.0415 16.8087 18.803C16.9669 18.6705 16.9537 18.379 16.8087 18.2465C16.6505 18.0742 16.4264 18.0874 16.255 18.2332Z" fill="black"/>
<path d="M16.4132 18.3922C16.3077 18.6307 16.1891 18.8825 16.0836 19.121C15.9913 19.3198 16.0309 19.5451 16.2286 19.6643C16.4 19.7703 16.6769 19.7173 16.7692 19.5186C16.8746 19.28 16.9933 19.0283 17.0987 18.7898C17.191 18.591 17.1515 18.3657 16.9537 18.2465C16.7823 18.1537 16.4923 18.1935 16.4132 18.3922Z" fill="black"/>
<path d="M34.4347 4.62456C34.8302 4.31979 35.1598 3.97527 35.4235 3.56449C35.7003 3.12721 35.0148 2.72969 34.7379 3.16696C34.5534 3.45848 34.3161 3.73675 34.0392 3.94877C33.8679 4.08127 33.7756 4.29329 33.8942 4.49205C33.9865 4.65106 34.2634 4.75707 34.4347 4.62456Z" fill="black"/>
<path d="M38.0074 9.15636C38.7062 8.89134 39.4181 8.62632 40.1168 8.3613C40.5914 8.17579 40.3804 7.40724 39.9058 7.59275C39.2071 7.85777 38.4952 8.12279 37.7965 8.3878C37.3219 8.56007 37.5328 9.32862 38.0074 9.15636Z" fill="black"/>
<path d="M38.9302 14.47C39.4576 14.6687 39.9849 14.8675 40.5254 15.0663C41 15.2518 41.2109 14.4832 40.7363 14.2977C40.209 14.099 39.6817 13.9002 39.1412 13.7014C38.6666 13.5159 38.4556 14.2845 38.9302 14.47Z" fill="black"/>
<path d="M28.911 25.3224C29.2274 25.985 29.5306 26.6343 29.847 27.2968C29.8997 27.1113 29.9393 26.9391 29.992 26.7535C29.5833 27.0053 29.0692 26.9921 28.6473 27.2438C28.2122 27.5088 28.6077 28.1979 29.0428 27.9329C29.4515 27.6811 29.9656 27.6944 30.3875 27.4426C30.5852 27.3233 30.6248 27.0981 30.5325 26.8993C30.2161 26.2368 29.9129 25.5875 29.5965 24.9249C29.3856 24.4479 28.7 24.8587 28.911 25.3224Z" fill="black"/>
<path d="M34.0129 22.712C34.5271 23.5336 35.674 23.8118 36.4782 23.242C36.2804 23.0963 36.0959 22.9373 35.8981 22.7915C35.7531 23.1625 35.7004 23.5601 35.7531 23.9576C35.819 24.4611 36.61 24.4611 36.5441 23.9576C36.5046 23.6131 36.5309 23.3216 36.6627 23.0035C36.7814 22.6855 36.3464 22.3542 36.0827 22.553C35.6345 22.871 35.0017 22.7915 34.6984 22.3145C34.4348 21.8772 33.7493 22.2747 34.0129 22.712Z" fill="black"/>
<path d="M25.9315 3.67051C25.602 3.06096 25.7733 2.0804 26.1952 1.56361C26.5116 1.16609 25.9579 0.596299 25.6415 1.00708C24.9824 1.82863 24.7319 3.12722 25.246 4.08128C25.4965 4.51856 26.182 4.12104 25.9315 3.67051Z" fill="#337733"/>
<path d="M25.6284 1.62985C25.7997 1.32508 26.0239 1.03356 26.3139 0.848052C26.6039 0.66254 26.9731 0.556533 27.3158 0.609536C27.7245 0.689041 28.0805 0.96731 28.4891 1.00706C28.8583 1.04682 29.2406 0.848052 29.4383 0.51678L29.5306 0.397522C29.6361 0.96731 29.3988 1.55035 28.9901 1.96113C28.5814 2.3719 28.0277 2.59717 27.474 2.68992C27.2763 2.71643 27.0785 2.72968 26.8808 2.71643C26.4325 2.67667 25.9975 2.46466 25.6811 2.12014" fill="#4AA04C"/>
<path d="M25.9711 1.84187C26.2875 1.32509 26.7753 0.861307 27.4213 1.06007C27.7772 1.16608 28.0673 1.37809 28.4496 1.41784C29.056 1.47085 29.4647 1.15283 29.8206 0.702296C29.5965 0.60954 29.3724 0.516784 29.1483 0.424028C29.3197 2.02738 27.0653 2.92845 25.9711 1.84187C25.6152 1.4841 25.0483 2.05389 25.4174 2.41166C26.9467 3.94876 30.1898 2.74293 29.9261 0.410777C29.8866 0.119258 29.4911 -0.172262 29.2538 0.132508C28.9374 0.543286 28.621 0.689046 28.1068 0.490282C27.7377 0.344523 27.4213 0.185512 27.0126 0.212014C26.2348 0.251766 25.6811 0.808304 25.2856 1.44435C25.0219 1.86837 25.6943 2.2659 25.9711 1.84187Z" fill="#4AA04C"/>
<path d="M23.2817 17.7959C22.372 18.6175 21.1724 18.909 19.9727 18.909C18.9971 18.909 17.837 18.8295 17.0065 18.2465C16.5978 17.9549 16.2023 18.644 16.611 18.9355C17.5865 19.6378 18.9839 19.7306 20.1441 19.7041C21.502 19.6776 22.8203 19.28 23.8486 18.3525C24.2177 18.008 23.664 17.4514 23.2817 17.7959Z" fill="black"/>
</g>
<defs>
<clipPath id="clip0">
<rect width="41" height="30" fill="white"/>
</clipPath>
</defs>
</svg>
